# xmcd
#
# Track frame offsets:
#	182
#	11732
#	24787
#	41880
#	53610
#	66207
#	80787
#	94405
#	111910
#	127257
#	138457
#	150612
#	164492
#	174667
#	186210
#
# Disc length: 2672 seconds
#
# Revision: 0
# Processed by: cddbd v1.5.2PL0 Copyright (c) Steve Scherf et al.
# Submitted via: EasyCDDAExtractor 2010.6.0.0
#
DISCID=d40a6e0f
DTITLE=Various Artist - Armando Manzanero Y Sus Amigos
DYEAR=0000
DGENRE=Bolero
TTITLE0=Armando Manzanero  - Todo Y Nada
TTITLE1=Armando Manzanero Con Lucho Gatica - Adoro
TTITLE2=Armando Manzanero Con María Victoria - Contigo Aprendí
TTITLE3=Armando Manzanero Con Hnos. Mártinez Gil - Cuando Estoy Contigo
TTITLE4=Armando Manzanero Con Fernando Fernández - Es Que Estoy Aquí
TTITLE5=Armando Manzanero  - Ofrenda
TTITLE6=Armando Manzanero Con Trío Los Montejo - Voy A Apagar La Luz
TTITLE7=Armando Manzanero Con Olga Guillot - Esta Tarde Ví Llover
TTITLE8=Armando Manzanero Con Trío Los Fantasmas - No Sé Tú
TTITLE9=Armando Manzanero Con Irma Dorantes - Parece Que Fue Ayer
TTITLE10=Armando Manzanero   - Vete De Mí
TTITLE11=Armando Manzanero Con Ángeles Negros - El Ciego
TTITLE12=Armando Manzanero Con César Costa - Mi Primer Amor
TTITLE13=Armando Manzanero  Con Héctor González De La Barrera - No
TTITLE14=Armando Manzanero Con Los Tres Ases - Te Extraño
EXTD=
EXTT0=
EXTT1=
EXTT2=
EXTT3=
EXTT4=
EXTT5=
EXTT6=
EXTT7=
EXTT8=
EXTT9=
EXTT10=
EXTT11=
EXTT12=
EXTT13=
EXTT14=
PLAYORDER=
